<?xml version="1.0" standalone="no"?>
<!DOCTYPE svg PUBLIC "-//W3C//DTD SVG 20010904//EN"
 "http://www.w3.org/TR/2001/REC-SVG-20010904/DTD/svg10.dtd">
<svg version="1.0" xmlns="http://www.w3.org/2000/svg"
 width="658.000000pt" height="654.000000pt" viewBox="0 0 658.000000 654.000000"
 preserveAspectRatio="xMidYMid meet">

<g transform="translate(0.000000,654.000000) scale(0.100000,-0.100000)"
fill="#000000" stroke="none">
<path d="M1835 6529 c-283 -17 -515 -82 -775 -215 -578 -297 -968 -870 -1039
-1526 -15 -134 -15 -2882 0 -3016 49 -455 244 -865 563 -1186 56 -55 147 -136
203 -178 327 -246 673 -373 1084 -398 216 -13 2622 -13 2838 0 330 20 616 106
886 265 542 319 896 869 964 1497 15 134 15 2862 0 2996 -49 455 -244 865
-563 1186 -56 55 -147 136 -203 178 -327 246 -673 373 -1084 398 -189 11
-2689 11 -2874 -1z"/>
</g>
</svg>
